<svg xmlns="http://www.w3.org/2000/svg" xmlns:xlink="http://www.w3.org/1999/xlink" width="500" zoomAndPan="magnify" viewBox="0 0 375 374.999991" height="500" preserveAspectRatio="xMidYMid meet" version="1.0"><defs><g/></defs><g fill="#3b82f6" fill-opacity="1"><g transform="translate(112.514228, 198.743526)"><g><path d="M 0.40625 -33.796875 L 0.40625 -42.25 L 30.109375 -42.25 L 30.109375 -33.796875 L 20.078125 -33.796875 L 20.078125 0 L 10.453125 0 L 10.453125 -33.796875 Z M 0.40625 -33.796875 "/></g></g></g><g fill="#3b82f6" fill-opacity="1"><g transform="translate(138.214847, 198.743526)"><g><path d="M 4.859375 -3.25 C 2.398438 -5.925781 1.171875 -9.207031 1.171875 -13.09375 C 1.171875 -16.988281 2.398438 -20.285156 4.859375 -22.984375 C 7.316406 -25.679688 10.441406 -27.03125 14.234375 -27.03125 C 17.710938 -27.03125 20.582031 -25.941406 22.84375 -23.765625 L 22.84375 -26.265625 L 31.90625 -26.265625 L 31.90625 0 L 22.9375 0 L 22.9375 -2.96875 L 22.84375 -2.96875 C 20.582031 -0.476562 17.710938 0.765625 14.234375 0.765625 C 10.441406 0.765625 7.316406 -0.570312 4.859375 -3.25 Z M 12.5625 -17.5625 C 11.382812 -16.40625 10.796875 -14.921875 10.796875 -13.109375 C 10.796875 -11.296875 11.359375 -9.816406 12.484375 -8.671875 C 13.617188 -7.535156 15.109375 -6.96875 16.953125 -6.96875 C 18.722656 -6.96875 20.179688 -7.546875 21.328125 -8.703125 C 22.472656 -9.867188 23.046875 -11.335938 23.046875 -13.109375 C 23.046875 -14.921875 22.457031 -16.40625 21.28125 -17.5625 C 20.101562 -18.71875 18.660156 -19.296875 16.953125 -19.296875 C 15.210938 -19.296875 13.75 -18.71875 12.5625 -17.5625 Z M 12.5625 -17.5625 "/></g></g></g><g fill="#3b82f6" fill-opacity="1"><g transform="translate(168.369804, 198.743526)"><g><path d="M 14.484375 -27.03125 C 15.992188 -27.03125 17.476562 -26.859375 18.9375 -26.515625 C 20.40625 -26.179688 21.5 -25.84375 22.21875 -25.5 L 23.296875 -24.984375 L 20.328125 -19.046875 C 18.273438 -20.140625 16.328125 -20.6875 14.484375 -20.6875 C 13.460938 -20.6875 12.738281 -20.570312 12.3125 -20.34375 C 11.882812 -20.125 11.671875 -19.707031 11.671875 -19.09375 C 11.671875 -18.957031 11.6875 -18.820312 11.71875 -18.6875 C 11.757812 -18.550781 11.828125 -18.421875 11.921875 -18.296875 C 12.023438 -18.179688 12.117188 -18.082031 12.203125 -18 C 12.296875 -17.914062 12.441406 -17.820312 12.640625 -17.71875 C 12.847656 -17.613281 13.007812 -17.535156 13.125 -17.484375 C 13.25 -17.429688 13.445312 -17.351562 13.71875 -17.25 C 13.988281 -17.15625 14.191406 -17.082031 14.328125 -17.03125 C 14.472656 -16.976562 14.707031 -16.898438 15.03125 -16.796875 C 15.351562 -16.691406 15.597656 -16.625 15.765625 -16.59375 C 16.828125 -16.28125 17.75 -15.9375 18.53125 -15.5625 C 19.320312 -15.1875 20.148438 -14.675781 21.015625 -14.03125 C 21.890625 -13.382812 22.566406 -12.566406 23.046875 -11.578125 C 23.523438 -10.585938 23.765625 -9.457031 23.765625 -8.1875 C 23.765625 -2.21875 19.613281 0.765625 11.3125 0.765625 C 9.4375 0.765625 7.65625 0.476562 5.96875 -0.09375 C 4.28125 -0.675781 3.054688 -1.257812 2.296875 -1.84375 L 1.171875 -2.765625 L 4.859375 -8.953125 C 5.140625 -8.722656 5.5 -8.441406 5.9375 -8.109375 C 6.382812 -7.785156 7.1875 -7.34375 8.34375 -6.78125 C 9.507812 -6.21875 10.515625 -5.9375 11.359375 -5.9375 C 13.242188 -5.9375 14.1875 -6.566406 14.1875 -7.828125 C 14.1875 -8.410156 13.945312 -8.863281 13.46875 -9.1875 C 12.988281 -9.507812 12.175781 -9.875 11.03125 -10.28125 C 9.882812 -10.695312 8.988281 -11.078125 8.34375 -11.421875 C 6.707031 -12.273438 5.410156 -13.238281 4.453125 -14.3125 C 3.492188 -15.382812 3.015625 -16.8125 3.015625 -18.59375 C 3.015625 -21.25 4.046875 -23.316406 6.109375 -24.796875 C 8.179688 -26.285156 10.972656 -27.03125 14.484375 -27.03125 Z M 14.484375 -27.03125 "/></g></g></g><g fill="#3b82f6" fill-opacity="1"><g transform="translate(188.745705, 198.743526)"><g><path d="M 33.078125 -26.265625 L 20.578125 -13.71875 L 34.3125 0 L 22.625 0 L 12.140625 -10.5 L 12.140625 0 L 3.078125 0 L 3.078125 -44.03125 L 12.140625 -44.03125 L 12.140625 -17.109375 L 21.296875 -26.265625 Z M 33.078125 -26.265625 "/></g></g></g><g fill="#3b82f6" fill-opacity="1"><g transform="translate(217.006287, 198.743526)"><g><path d="M 22.984375 -26.265625 L 33.4375 -26.265625 L 12.796875 13.3125 L 2.359375 13.3125 L 11.421875 -4.09375 L -1.03125 -26.265625 L 9.421875 -26.265625 L 16.75 -12.796875 Z M 22.984375 -26.265625 "/></g></g></g><g fill="#3b82f6" fill-opacity="1"><g transform="translate(244.601287, 198.743526)"><g><path d="M 8.90625 -10.953125 C 10.539062 -10.953125 11.929688 -10.378906 13.078125 -9.234375 C 14.222656 -8.097656 14.796875 -6.707031 14.796875 -5.0625 C 14.796875 -3.457031 14.222656 -2.082031 13.078125 -0.9375 C 11.929688 0.195312 10.539062 0.765625 8.90625 0.765625 C 7.300781 0.765625 5.925781 0.195312 4.78125 -0.9375 C 3.644531 -2.082031 3.078125 -3.457031 3.078125 -5.0625 C 3.078125 -6.707031 3.644531 -8.097656 4.78125 -9.234375 C 5.925781 -10.378906 7.300781 -10.953125 8.90625 -10.953125 Z M 8.90625 -10.953125 "/></g></g></g></svg>